REM DIRINDEX 1\3,1\2\4,1\2\5,1\2\6
REM DIRNAME cjc137,folder01,folder02,folder03,folder04,folder05
TITLE ""
FILE "069.mp3" MP3
  TRACK 01 AUDIO
    TITLE "0:"
    INDEX 01 00:00:00
  TRACK 02 AUDIO
    TITLE "4:cjc137_2822"
    INDEX 01 00:00:03
  TRACK 03 AUDIO
    TITLE "0:"
    INDEX 01 00:01:24
  TRACK 04 AUDIO
    TITLE "6:cjc137_2823"
    INDEX 01 00:01:32
  TRACK 05 AUDIO
    TITLE "0:"
    INDEX 01 00:03:00
  TRACK 06 AUDIO
    TITLE "5:cjc137_2824"
    INDEX 01 00:03:12
  TRACK 07 AUDIO
    TITLE "0:"
    INDEX 01 00:04:31
  TRACK 08 AUDIO
    TITLE "4:cjc137_2825"
    INDEX 01 00:05:42
  TRACK 09 AUDIO
    TITLE "0:"
    INDEX 01 00:06:55
  TRACK 10 AUDIO
    TITLE "6:cjc137_2826"
    INDEX 01 00:06:61
  TRACK 11 AUDIO
    TITLE "0:"
    INDEX 01 00:08:09
  TRACK 12 AUDIO
    TITLE "5:cjc137_2827"
    INDEX 01 00:08:15
  TRACK 13 AUDIO
    TITLE "0:"
    INDEX 01 00:09:30
  TRACK 14 AUDIO
    TITLE "4:cjc137_2828"
    INDEX 01 00:10:35
  TRACK 15 AUDIO
    TITLE "0:"
    INDEX 01 00:11:50
  TRACK 16 AUDIO
    TITLE "6:cjc137_2829"
    INDEX 01 00:11:54
  TRACK 17 AUDIO
    TITLE "0:"
    INDEX 01 00:12:61
  TRACK 18 AUDIO
    TITLE "5:cjc137_2830"
    INDEX 01 00:12:67
  TRACK 19 AUDIO
    TITLE "0:"
    INDEX 01 00:14:06
  TRACK 20 AUDIO
    TITLE "4:cjc137_2831"
    INDEX 01 00:15:13
  TRACK 21 AUDIO
    TITLE "0:"
    INDEX 01 00:16:22
  TRACK 22 AUDIO
    TITLE "6:cjc137_2832"
    INDEX 01 00:16:28
  TRACK 23 AUDIO
    TITLE "0:"
    INDEX 01 00:17:27
  TRACK 24 AUDIO
    TITLE "5:cjc137_2833"
    INDEX 01 00:17:31
  TRACK 25 AUDIO
    TITLE "0:"
    INDEX 01 00:18:42
  TRACK 26 AUDIO
    TITLE "4:cjc137_2834"
    INDEX 01 00:19:50
  TRACK 27 AUDIO
    TITLE "0:"
    INDEX 01 00:20:47
  TRACK 28 AUDIO
    TITLE "6:cjc137_2835"
    INDEX 01 00:20:63
  TRACK 29 AUDIO
    TITLE "0:"
    INDEX 01 00:21:49
  TRACK 30 AUDIO
    TITLE "5:cjc137_2836"
    INDEX 01 00:21:57
  TRACK 31 AUDIO
    TITLE "0:"
    INDEX 01 00:22:52
  TRACK 32 AUDIO
    TITLE "4:cjc137_2837"
    INDEX 01 00:23:73
  TRACK 33 AUDIO
    TITLE "0:"
    INDEX 01 00:25:01
  TRACK 34 AUDIO
    TITLE "6:cjc137_2838"
    INDEX 01 00:25:07
  TRACK 35 AUDIO
    TITLE "0:"
    INDEX 01 00:26:18
  TRACK 36 AUDIO
    TITLE "5:cjc137_2839"
    INDEX 01 00:26:26
  TRACK 37 AUDIO
    TITLE "0:"
    INDEX 01 00:27:28
  TRACK 38 AUDIO
    TITLE "4:cjc137_2840"
    INDEX 01 00:28:37
  TRACK 39 AUDIO
    TITLE "0:"
    INDEX 01 00:29:58
  TRACK 40 AUDIO
    TITLE "6:cjc137_2841"
    INDEX 01 00:29:70
  TRACK 41 AUDIO
    TITLE "0:"
    INDEX 01 00:31:12
  TRACK 42 AUDIO
    TITLE "5:cjc137_2842"
    INDEX 01 00:31:20
  TRACK 43 AUDIO
    TITLE "0:"
    INDEX 01 00:32:41
  TRACK 44 AUDIO
    TITLE "4:cjc137_2843"
    INDEX 01 00:33:54
  TRACK 45 AUDIO
    TITLE "0:"
    INDEX 01 00:34:51
  TRACK 46 AUDIO
    TITLE "6:cjc137_2844"
    INDEX 01 00:34:57
  TRACK 47 AUDIO
    TITLE "0:"
    INDEX 01 00:35:45
  TRACK 48 AUDIO
    TITLE "5:cjc137_2845"
    INDEX 01 00:35:53
  TRACK 49 AUDIO
    TITLE "0:"
    INDEX 01 00:36:50
  TRACK 50 AUDIO
    TITLE "4:cjc137_2846"
    INDEX 01 00:37:57
  TRACK 51 AUDIO
    TITLE "0:"
    INDEX 01 00:38:59
  TRACK 52 AUDIO
    TITLE "6:cjc137_2847"
    INDEX 01 00:38:71
  TRACK 53 AUDIO
    TITLE "0:"
    INDEX 01 00:39:68
  TRACK 54 AUDIO
    TITLE "5:cjc137_2848"
    INDEX 01 00:39:72
  TRACK 55 AUDIO
    TITLE "0:"
    INDEX 01 00:41:00
  TRACK 56 AUDIO
    TITLE "4:cjc137_2849"
    INDEX 01 00:42:12
  TRACK 57 AUDIO
    TITLE "0:"
    INDEX 01 00:43:27
  TRACK 58 AUDIO
    TITLE "6:cjc137_2850"
    INDEX 01 00:43:33
  TRACK 59 AUDIO
    TITLE "0:"
    INDEX 01 00:44:50
  TRACK 60 AUDIO
    TITLE "5:cjc137_2851"
    INDEX 01 00:44:56
  TRACK 61 AUDIO
    TITLE "0:"
    INDEX 01 00:45:71
  TRACK 62 AUDIO
    TITLE "4:cjc137_2852"
    INDEX 01 00:47:03
  TRACK 63 AUDIO
    TITLE "0:"
    INDEX 01 00:48:36
  TRACK 64 AUDIO
    TITLE "6:cjc137_2853"
    INDEX 01 00:48:46
  TRACK 65 AUDIO
    TITLE "0:"
    INDEX 01 00:50:25
  TRACK 66 AUDIO
    TITLE "5:cjc137_2854"
    INDEX 01 00:50:31
  TRACK 67 AUDIO
    TITLE "0:"
    INDEX 01 00:51:65
  TRACK 68 AUDIO
    TITLE "4:cjc137_2855"
    INDEX 01 00:53:00
  TRACK 69 AUDIO
    TITLE "0:"
    INDEX 01 00:54:27
  TRACK 70 AUDIO
    TITLE "6:cjc137_2856"
    INDEX 01 00:54:34
  TRACK 71 AUDIO
    TITLE "0:"
    INDEX 01 00:55:59
  TRACK 72 AUDIO
    TITLE "5:cjc137_2857"
    INDEX 01 00:55:67
  TRACK 73 AUDIO
    TITLE "0:"
    INDEX 01 00:57:19
  TRACK 74 AUDIO
    TITLE "4:cjc137_2858"
    INDEX 01 00:58:28
  TRACK 75 AUDIO
    TITLE "0:"
    INDEX 01 00:59:28
  TRACK 76 AUDIO
    TITLE "6:cjc137_2859"
    INDEX 01 00:59:36
  TRACK 77 AUDIO
    TITLE "0:"
    INDEX 01 01:00:39
  TRACK 78 AUDIO
    TITLE "5:cjc137_2860"
    INDEX 01 01:00:49
  TRACK 79 AUDIO
    TITLE "0:"
    INDEX 01 01:01:48
  TRACK 80 AUDIO
    TITLE "4:cjc137_2861"
    INDEX 01 01:02:57
  TRACK 81 AUDIO
    TITLE "0:"
    INDEX 01 01:03:63
  TRACK 82 AUDIO
    TITLE "6:cjc137_2862"
    INDEX 01 01:04:00
  TRACK 83 AUDIO
    TITLE "0:"
    INDEX 01 01:04:66
  TRACK 84 AUDIO
    TITLE "5:cjc137_2863"
    INDEX 01 01:04:70
  TRACK 85 AUDIO
    TITLE "0:"
    INDEX 01 01:06:04
